<?xml version="1.0" encoding="utf-8"?>
<!-- Generator: Adobe Illustrator 21.0.0, SVG Export Plug-In . SVG Version: 6.00 Build 0)  -->
<svg version="1.1" id="Capa_1" xmlns="http://www.w3.org/2000/svg" xmlns:xlink="http://www.w3.org/1999/xlink" x="0px" y="0px"
	 viewBox="0 0 33 32" style="enable-background:new 0 0 33 32;" xml:space="preserve">
<style type="text/css">
	.st0{fill:#B9D3B2;}
</style>
<path class="st0" d="M32.2,25l-9.5-9.5c-0.6-0.6-1.6-0.6-2.1,0l-0.7,0.7L14,10.4l9.5-9.5H13.5L9,5.3L8.5,4.9H6.4V7l0.4,0.4L0.3,14
	L5.4,19l6.5-6.5l5.8,5.8L17,19c-0.6,0.6-0.6,1.6,0,2.1l9.5,9.5c0.6,0.6,1.6,0.6,2.1,0l3.6-3.6C32.8,26.6,32.8,25.6,32.2,25L32.2,25z
	"/>
</svg>
