<?xml version="1.0" encoding="utf-8"?>
<!-- Generator: Adobe Illustrator 21.0.0, SVG Export Plug-In . SVG Version: 6.00 Build 0)  -->
<svg version="1.1" id="Capa_1" xmlns="http://www.w3.org/2000/svg" xmlns:xlink="http://www.w3.org/1999/xlink" x="0px" y="0px"
	 viewBox="0 0 28 32" style="enable-background:new 0 0 28 32;" xml:space="preserve">
<style type="text/css">
	.st0{fill:#B9D3B2;}
</style>
<g>
	<path class="st0" d="M27.8,13.8c0-5.4-1.6-9.8-3.5-9.8c0,0,0,0,0,0H22c0,0-5.2,3.9-12.8,5.5c-0.2,1.2-0.4,2.7-0.4,4.3
		s0.1,3.1,0.4,4.3c7.5,1.5,12.8,5.5,12.8,5.5h2.2c0,0,0,0,0,0C26.2,23.6,27.7,19.2,27.8,13.8L27.8,13.8z M23.5,22.1
		c-0.3,0-0.5-0.3-0.7-0.4c-0.3-0.4-0.7-1-0.9-1.7c-0.6-1.6-1-3.8-1-6.2s0.3-4.6,1-6.2c0.3-0.7,0.6-1.3,0.9-1.7
		c0.1-0.2,0.4-0.4,0.7-0.4c0.3,0,0.5,0.3,0.7,0.4c0.3,0.4,0.7,1,0.9,1.7c0.6,1.6,1,3.8,1,6.2s-0.3,4.6-1,6.2
		c-0.3,0.7-0.6,1.3-0.9,1.7C24,21.8,23.7,22.1,23.5,22.1z M7,13.8c0-1.4,0.1-2.8,0.3-4C6,9.9,4.9,10.1,3.5,10.1c-1.8,0-1.8,0-1.8,0
		l-1.5,2.5V15l1.5,2.5c0,0,0,0,1.8,0c1.4,0,2.5,0.1,3.8,0.3C7.1,16.5,7,15.2,7,13.8L7,13.8z M10.1,19.5l-3.4-0.7l2.2,8.6
		c0.1,0.4,0.6,0.7,1,0.5l3.2-1.3c0.4-0.2,0.6-0.6,0.4-1.1L10.1,19.5L10.1,19.5z M23.5,17c-0.1,0-0.2-0.1-0.3-0.2
		c-0.1-0.1-0.3-0.4-0.4-0.7c-0.2-0.6-0.4-1.5-0.4-2.4s0.1-1.8,0.4-2.4c0.1-0.3,0.2-0.5,0.4-0.7c0.1-0.1,0.2-0.2,0.3-0.2
		s0.2,0.1,0.3,0.2c0.1,0.1,0.3,0.4,0.4,0.7c0.2,0.6,0.4,1.5,0.4,2.4s-0.1,1.8-0.4,2.4c-0.1,0.3-0.2,0.5-0.4,0.7
		C23.7,16.9,23.6,17,23.5,17z"/>
</g>
</svg>
