<?xml version="1.0" encoding="utf-8"?>
<!-- Generator: Adobe Illustrator 21.0.0, SVG Export Plug-In . SVG Version: 6.00 Build 0)  -->
<svg version="1.1" id="Capa_1" xmlns="http://www.w3.org/2000/svg" xmlns:xlink="http://www.w3.org/1999/xlink" x="0px" y="0px"
	 viewBox="0 0 33 32" style="enable-background:new 0 0 33 32;" xml:space="preserve">
<style type="text/css">
	.st0{fill:#B9D3B2;}
</style>
<circle class="st0" cx="16.6" cy="5" r="4"/>
<circle class="st0" cx="25.1" cy="8.5" r="4"/>
<circle class="st0" cx="28.6" cy="17" r="2"/>
<circle class="st0" cx="25.1" cy="25.4" r="2"/>
<path class="st0" d="M14.6,28.9L14.6,28.9c0-1.1,0.9-2,2-2s2,0.9,2,2l0,0c0,1.1-0.9,2-2,2S14.6,30,14.6,28.9z"/>
<path class="st0" d="M6.2,25.4L6.2,25.4c0-1.1,0.9-2,2-2s2,0.9,2,2l0,0c0,1.1-0.9,2-2,2S6.2,26.5,6.2,25.4z"/>
<path class="st0" d="M5.2,8.5L5.2,8.5c0-1.6,1.3-3,3-3s3,1.3,3,3l0,0c0,1.6-1.3,3-3,3S5.2,10.2,5.2,8.5z"/>
<circle class="st0" cx="4.7" cy="17" r="2.2"/>
</svg>
